<svg width="31" height="29" viewBox="0 0 31 29" fill="none" xmlns="http://www.w3.org/2000/svg">
<path d="M21.5 19V20C21.9812 20 22.3942 19.6573 22.4829 19.1843L21.5 19ZM24.5 3L24.1286 2.07152C23.8109 2.19862 23.5802 2.47936 23.5171 2.81571L24.5 3ZM29.8714 1.92848C30.3842 1.72336 30.6336 1.14139 30.4285 0.628609C30.2234 0.115826 29.6414 -0.13359 29.1286 0.0715233L29.8714 1.92848ZM5 20H21.5V18H5V20ZM22.4829 19.1843L25.4829 3.18429L23.5171 2.81571L20.5171 18.8157L22.4829 19.1843ZM24.8714 3.92848L29.8714 1.92848L29.1286 0.0715233L24.1286 2.07152L24.8714 3.92848Z" fill="white"/>
<path d="M5 19L1 6.5L20 5.5" stroke="white" stroke-width="2" stroke-linecap="round" stroke-linejoin="round"/>
<path d="M21.5 23V24C21.8214 24 22.1233 23.8455 22.3112 23.5847C22.4992 23.3239 22.5503 22.9887 22.4487 22.6838L21.5 23ZM5 22C4.44772 22 4 22.4477 4 23C4 23.5523 4.44772 24 5 24V22ZM19.0513 18.8162L20.5513 23.3162L22.4487 22.6838L20.9487 18.1838L19.0513 18.8162ZM21.5 22H5V24H21.5V22Z" fill="white"/>
<circle cx="8" cy="25.5" r="2" stroke="white" stroke-width="2"/>
<circle cx="19" cy="25.5" r="2" stroke="white" stroke-width="2"/>
</svg>
